<?xml version="1.0" encoding="UTF-8" standalone="no"?>
<svg
   xmlns:osb="http://www.openswatchbook.org/uri/2009/osb"
   xmlns:dc="http://purl.org/dc/elements/1.1/"
   xmlns:cc="http://creativecommons.org/ns#"
   xmlns:rdf="http://www.w3.org/1999/02/22-rdf-syntax-ns#"
   xmlns:svg="http://www.w3.org/2000/svg"
   xmlns="http://www.w3.org/2000/svg"
   xmlns:xlink="http://www.w3.org/1999/xlink"
   xmlns:sodipodi="http://sodipodi.sourceforge.net/DTD/sodipodi-0.dtd"
   xmlns:inkscape="http://www.inkscape.org/namespaces/inkscape"
   width="210mm"
   height="210mm"
   viewBox="0 0 210 210"
   version="1.1"
   id="svg8"
   inkscape:version="1.0.1 (1.0.1+r74)"
   sodipodi:docname="ShroonCPPLogger.svg">
  <defs
     id="defs2">
    <linearGradient
       id="linearGradient897"
       inkscape:collect="always">
      <stop
         id="stop893"
         offset="0"
         style="stop-color:#0090ff;stop-opacity:1;" />
      <stop
         id="stop895"
         offset="1"
         style="stop-color:#0090ff;stop-opacity:0;" />
    </linearGradient>
    <linearGradient
       osb:paint="solid"
       id="linearGradient875">
      <stop
         id="stop873"
         offset="0"
         style="stop-color:#d4d5d4;stop-opacity:1;" />
    </linearGradient>
    <marker
       inkscape:isstock="true"
       style="overflow:visible"
       id="Arrow1Lstart"
       refX="0.0"
       refY="0.0"
       orient="auto"
       inkscape:stockid="Arrow1Lstart">
      <path
         transform="scale(0.8) translate(12.5,0)"
         style="fill-rule:evenodd;stroke:none;stroke-width:1pt;stroke-opacity:1;fill:#55ddff;fill-opacity:1"
         d="M 0.0,0.0 L 5.0,-5.0 L -12.5,0.0 L 5.0,5.0 L 0.0,0.0 z "
         id="path1123" />
    </marker>
    <linearGradient
       gradientUnits="userSpaceOnUse"
       y2="673.15991"
       x2="740.62811"
       y1="365.85028"
       x1="288.62756"
       id="linearGradient899"
       xlink:href="#linearGradient897"
       inkscape:collect="always" />
  </defs>
  <sodipodi:namedview
     id="base"
     pagecolor="#ffffff"
     bordercolor="#666666"
     borderopacity="1.0"
     inkscape:pageopacity="0.0"
     inkscape:pageshadow="2"
     inkscape:zoom="0.79992934"
     inkscape:cx="386.04181"
     inkscape:cy="314.87362"
     inkscape:document-units="mm"
     inkscape:current-layer="layer1"
     inkscape:document-rotation="0"
     showgrid="false"
     inkscape:window-width="1920"
     inkscape:window-height="1013"
     inkscape:window-x="0"
     inkscape:window-y="0"
     inkscape:window-maximized="1" />
  <metadata
     id="metadata5">
    <rdf:RDF>
      <cc:Work
         rdf:about="">
        <dc:format>image/svg+xml</dc:format>
        <dc:type
           rdf:resource="http://purl.org/dc/dcmitype/StillImage" />
        <dc:title></dc:title>
      </cc:Work>
    </rdf:RDF>
  </metadata>
  <g
     inkscape:groupmode="layer"
     id="layer2"
     inkscape:label="Shroon"
     style="display:inline">
    <g
       id="g1047"
       transform="matrix(0.52907315,0,0,0.52907315,40.365622,57.595987)">
      <g
         id="layer1-3"
         inkscape:label="Layer 1"
         style="display:inline">
        <path
           id="path35"
           style="fill:none;stroke:#ffe600;stroke-width:1.777;stroke-linecap:butt;stroke-linejoin:miter;stroke-miterlimit:4;stroke-dasharray:none;stroke-dashoffset:0;stroke-opacity:1"
           d="m 23.231769,87.182938 c 0,0 14.937573,-23.869007 90.892291,-9.871286 M 97.116249,53.677675 114.12407,77.311652 m -90.892301,9.871286 27.321942,-41.27411 c 0,0 11.072825,17.75048 46.562538,7.768847" />
        <path
           id="path41"
           style="fill:none;stroke:#ffe600;stroke-width:1.477;stroke-linecap:butt;stroke-linejoin:miter;stroke-miterlimit:4;stroke-dasharray:none;stroke-dashoffset:0;stroke-opacity:1"
           d="m 51.422856,78.078816 35.13889,15.203512 c 0,0 6.226572,-11.615904 27.143244,-12.928655 M 51.422856,78.078816 c 0,0 27.299219,-4.995513 62.282134,2.274857" />
        <path
           d="M 86.567467,95.333772 48.842923,79.052691 c 0,0 -12.306364,-0.787003 -31.80372,16.898528 L 48.231227,37.18951 c 0,0 15.842977,20.251764 37.528312,16.595205 m 0.807928,41.549057 c -2.400009,9.128528 -17.74548,41.534158 -33.09531,45.784588 0,0 29.967475,-1.14504 44.073073,-19.20901 0,0 0.154116,33.36419 -24.520053,60.03925 0,0 36.440603,-20.12805 51.409233,-50.23535 0,0 8.7839,24.02071 3.83914,41.15109 0,0 16.6568,-9.60982 27.00156,-31.89038 0,0 14.71204,20.34285 22.5805,50.64364 l 1.47764,-28.34575 M 85.759539,53.784715 c 0,0 -0.583952,-16.767059 18.880361,-22.976046 19.46431,-6.208988 42.66524,-5.543249 53.21074,2.535977 10.5455,8.079251 18.63112,13.346057 22.94086,34.49977 4.30971,21.153718 -1.45825,95.427434 -1.45825,95.427434"
           style="fill:none;stroke:#000000;stroke-width:0.169;stroke-linecap:butt;stroke-linejoin:miter;stroke-miterlimit:4;stroke-dasharray:0, 1.859;stroke-dashoffset:1.69;stroke-opacity:1"
           id="path47" />
        <path
           d="M 88.295803,53.310591 98.713147,50.17182 m -10.417344,3.138771 c 0,0 -0.896407,-15.306381 20.380477,-21.666224 m 0,0 c 0,0 15.61558,-4.919356 30.76946,-2.566073 0,0 20.20462,1.556498 33.92659,22.37118 0,0 5.78144,10.692174 6.97163,26.862679 l -0.1074,22.939237 -1.14804,28.53931 m 0,0 c 0,0 0.37224,21.70092 -4.47247,37.32162 0,0 -8.72806,-22.38604 -20.69299,-30.20608 0,0 1.35212,4.06772 -17.18161,21.52939 0,0 -3.49714,-25.09188 -12.94742,-31.13123 0,0 -12.54406,21.07533 -28.061592,30.34332 0,0 9.316792,-26.81833 2.765499,-40.53681 m 0,0 c 0,0 -13.580683,13.54672 -23.823171,13.87401 0,0 9.581058,-14.46169 11.831791,-28.88176 m 0,0 2.361029,-6.51083 c 0,0 1.520159,-10.942007 29.923144,-14.200027 L 98.713147,50.17182"
           style="fill:none;fill-opacity:1;stroke:#aeffff;stroke-width:2.177;stroke-linecap:butt;stroke-linejoin:miter;stroke-miterlimit:4;stroke-dasharray:none;stroke-dashoffset:0;stroke-opacity:1"
           id="path59" />
        <path
           sodipodi:nodetypes="ccc"
           id="path61"
           d="m 149.45485,37.591548 c -40.77857,-5.947181 -34.78516,14.558103 -34.78516,14.558103 0,0 29.80255,0.0913 34.78516,-14.558103 z"
           style="fill:none;stroke:#80bfff;stroke-width:1.652;stroke-linecap:butt;stroke-linejoin:miter;stroke-miterlimit:4;stroke-dasharray:none;stroke-dashoffset:0;stroke-opacity:1" />
        <path
           style="fill:none;stroke:#b7ffff;stroke-width:0.624;stroke-linecap:butt;stroke-linejoin:miter;stroke-miterlimit:4;stroke-dasharray:none;stroke-dashoffset:0;stroke-opacity:1"
           d="m 147.22609,38.839701 c -34.13995,-4.404353 -31.11146,11.881454 -31.11146,11.881454 0,0 26.25901,-1.097479 31.11146,-11.881454 z"
           id="path63"
           sodipodi:nodetypes="ccc" />
        <path
           sodipodi:nodetypes="cc"
           id="path71"
           d="m 134.30745,38.109949 c 0,0 5.61619,1.658561 3.6767,8.176117"
           style="fill:none;stroke:#000000;stroke-width:0.177;stroke-linecap:butt;stroke-linejoin:miter;stroke-miterlimit:4;stroke-dasharray:0, 1.947;stroke-dashoffset:0;stroke-opacity:1" />
        <path
           sodipodi:nodetypes="cc"
           id="path73"
           d="m 126.0342,39.23305 c 0,0 -4.20545,6.405528 2.07992,9.895607"
           style="fill:none;stroke:#000000;stroke-width:0.177;stroke-linecap:butt;stroke-linejoin:miter;stroke-miterlimit:4;stroke-dasharray:0, 1.947;stroke-dashoffset:0;stroke-opacity:1" />
        <path
           transform="scale(0.26458333)"
           id="path267"
           d=""
           style="fill:#d5f6ff;stroke-width:0.431953" />
        <path
           transform="scale(0.26458333)"
           id="path269"
           d=""
           style="fill:#d5f6ff;stroke-width:0.431953" />
        <path
           transform="scale(0.26458333)"
           id="path276"
           d=""
           style="fill:#000000;stroke-width:0.226192" />
        <path
           transform="scale(0.26458333)"
           id="path278"
           d=""
           style="fill:#000000;stroke-width:1.02238" />
      </g>
      <g
         id="layer2-5"
         inkscape:label="Color"
         style="display:inline">
        <path
           style="fill:#ffe680;fill-opacity:1;stroke:#000000;stroke-width:1.31906;stroke-miterlimit:4;stroke-dasharray:0, 14.5096;stroke-dashoffset:0;stroke-opacity:1"
           d="m 99.523955,314.93428 c 0.11746,-0.32327 20.751755,-31.61309 45.853985,-69.53292 l 45.64042,-68.94514 3.8086,4.13903 c 15.26491,16.58933 39.04713,28.3056 66.68692,32.8532 8.70662,1.43251 11.30018,1.69466 21.1353,2.13628 23.57463,1.05855 52.01116,-2.40399 78.78231,-9.59284 2.71658,-0.72949 5.08621,-1.15365 5.26585,-0.9426 1.92312,2.25941 60.51982,84.30311 60.33932,84.48361 -0.13435,0.13436 -6.55092,-0.82217 -14.25904,-2.12563 -36.18509,-6.11894 -71.72463,-10.24915 -106.64478,-12.39365 -14.25346,-0.87532 -58.50847,-0.87639 -70.71192,-0.002 -35.4547,2.54125 -62.60049,7.42559 -87.41142,15.72795 -18.68675,6.25305 -33.2679,13.60292 -47.63465,24.01102 -0.588356,0.42623 -0.968936,0.50826 -0.850895,0.18338 z"
           id="path2237"
           transform="scale(0.26458333)" />
        <path
           style="fill:#ffe680;fill-opacity:1;stroke:#000000;stroke-width:1.31952;stroke-miterlimit:4;stroke-dasharray:0, 14.5147;stroke-dashoffset:0;stroke-opacity:1"
           d="m 264.64503,323.85495 c -33.29461,-14.4518 -61.47501,-26.67654 -62.6231,-27.1661 l -2.08744,-0.89011 2.6093,-0.40894 c 3.94221,-0.61783 21.03385,-2.43256 28.70225,-3.0475 31.99598,-2.5658 69.52639,-2.66407 102.54534,-0.2685 26.78111,1.94301 49.46093,4.74955 76.54817,9.47256 l 8.22171,1.43356 -8.72904,1.44881 c -25.65732,4.2585 -45.6076,12.21526 -62.99436,25.12399 -5.65656,4.1997 -14.91633,13.30354 -18.00414,17.70096 -1.14809,1.63502 -2.43969,2.95128 -2.87023,2.92501 -0.43053,-0.0263 -28.02384,-11.87195 -61.31846,-26.32374 z"
           id="path2239"
           transform="scale(0.26458333)" />
        <path
           style="fill:#d5f6ff;fill-opacity:1;stroke:#000000;stroke-width:1.48597;stroke-miterlimit:4;stroke-dasharray:0, 16.3457;stroke-dashoffset:0;stroke-opacity:1"
           d="m 669.9624,708.78618 c -1.80846,-7.85311 -14.45595,-44.64901 -20.86534,-60.7045 -11.58914,-29.03066 -22.68826,-52.40037 -37.49014,-78.93722 -8.03973,-14.41365 -24.33831,-39.99718 -25.01253,-39.26167 -0.20658,0.22536 -3.17148,5.78378 -6.58866,12.35207 -21.4228,41.17744 -52.04001,77.73333 -85.70284,102.32626 -6.08574,4.44604 -6.58235,4.62518 -5.98753,2.15999 2.83103,-11.73308 3.50078,-19.50968 3.43215,-39.85086 -0.0837,-24.77476 -2.20975,-42.63761 -8.20714,-68.95292 -3.23655,-14.20125 -10.61003,-39.78096 -12.37743,-42.93911 -0.64857,-1.15895 -2.46336,1.37992 -6.30979,8.82733 -23.82512,46.12981 -72.87536,99.67326 -131.14634,143.1599 -16.20521,12.09366 -43.91678,30.6669 -44.65463,29.92905 -0.30444,-0.30444 2.04611,-3.76872 5.22345,-7.69839 32.90858,-40.70062 58.73055,-97.90223 69.73303,-154.47467 4.53308,-23.30815 8.23787,-58.30543 6.14946,-58.09076 -0.5378,0.0553 -4.05243,3.72932 -7.81029,8.16453 -26.00587,30.6934 -72.61893,53.28684 -130.42293,63.21626 -16.19399,2.78175 -16.70655,2.5115 -7.26677,-3.83155 19.78208,-13.29254 41.26846,-38.69367 62.71981,-74.14711 21.11016,-34.88954 44.41357,-87.30896 40.44507,-90.97843 -0.78987,-0.73036 -33.45751,-15.1168 -72.59474,-31.96988 l -71.1586,-30.64196 -8.79754,1.29905 c -25.98821,3.83743 -61.84501,22.02216 -92.976723,47.15302 -5.419563,4.37491 -9.853751,7.6822 -9.853751,7.34955 0,-0.62153 109.184664,-206.67086 110.017614,-207.62123 0.25486,-0.2908 1.78001,1.15359 3.38919,3.20975 5.28211,6.74929 25.43285,23.83462 38.07616,32.28387 20.1328,13.45432 38.32854,21.03169 59.05234,24.59155 10.81098,1.85706 29.7639,2.31223 37.68518,0.90502 l 4.41055,-0.78353 1.90166,-11.25761 c 6.43679,-38.10497 30.89504,-63.58118 73.38036,-76.43445 34.31629,-10.38186 56.75321,-13.58046 95.51667,-13.61682 25.87967,-0.0243 31.63741,0.29849 43.35651,2.43046 28.34356,5.15633 42.89062,11.62178 66.37581,29.50079 30.18473,22.97929 45.13817,39.71328 56.97082,63.75456 9.81253,19.93684 17.06449,44.20138 20.69911,69.25779 6.95092,47.91833 4.82836,170.37341 -5.6217,324.32915 -0.98798,14.5554 -2.91807,47.49508 -4.2891,73.19929 -1.66897,31.29039 -2.79272,45.43237 -3.40043,42.79343 z m -4.78275,-89.8099 c 8.12556,-32.94749 11.59018,-62.94514 13.16912,-114.02197 0.60312,-19.51042 1.83691,-53.21025 2.74173,-74.8885 2.1478,-51.45764 2.53315,-138.50338 0.67054,-151.46622 -5.27035,-36.67906 -17.31943,-74.29193 -29.36307,-91.66088 -21.27535,-30.6826 -52.30801,-55.04229 -88.3697,-69.36753 -33.77725,-13.41775 -83.41297,-15.24501 -132.9101,-4.89286 -44.21482,9.24738 -72.58086,26.0264 -88.7162,52.47724 -7.45117,12.21478 -13.2132,35.75589 -9.13484,37.32091 0.99239,0.38081 10.17229,-1.87058 20.39977,-5.0031 10.2275,-3.13252 18.6993,-5.54434 18.82625,-5.3596 3.52276,5.12647 72.7018,113.4006 72.7018,113.78769 0,0.30843 -3.16727,0.91494 -7.03839,1.34779 -29.65589,3.316 -64.10523,14.41274 -81.50349,26.25372 -7.44867,5.06945 -17.32203,15.0598 -19.81566,20.05045 -3.09373,6.19167 -11.87194,33.66447 -15.30028,47.88468 -5.92221,24.56439 -17.05135,51.29718 -32.73693,78.6359 -5.03153,8.76958 -9.14825,16.2513 -9.14825,16.62605 0,1.35818 12.80823,-0.86792 21.47567,-3.73255 16.73614,-5.53134 37.74476,-18.68334 59.46286,-37.2254 12.28601,-10.48932 11.49547,-10.61702 15.1092,2.44077 3.18968,11.52548 3.92259,43.54908 1.43129,62.53744 -2.40513,18.33152 -8.50596,46.4326 -13.99701,64.47169 -2.40384,7.89707 -4.11032,14.35832 -3.79219,14.35832 1.56406,0 20.99316,-13.78034 29.4914,-20.91714 21.80678,-18.31329 49.54865,-50.03144 69.50594,-79.46832 5.39976,-7.96461 10.11808,-14.48112 10.48517,-14.48112 1.2691,0 10.9784,10.71838 14.61498,16.13391 11.39938,16.97572 23.73415,53.80717 29.95391,89.44199 1.1081,6.34863 2.36225,11.54296 2.78701,11.54296 0.42474,0 10.35053,-9.75521 22.05729,-21.67825 22.13923,-22.54825 37.87226,-41.97276 42.31686,-52.24581 1.42622,-3.2965 2.92675,-6.0023 3.3345,-6.01286 0.40776,-0.0101 3.44834,2.18651 6.75686,4.88239 10.44347,8.5097 24.0549,25.23849 36.53954,44.90803 7.49682,11.81123 23.45885,42.65552 29.15063,56.32933 1.74027,4.1808 3.52033,7.60146 3.9557,7.60146 0.43535,0 2.635,-7.47477 4.88809,-16.61061 z M 339.82194,341.04173 c 18.99243,-18.95093 45.61736,-30.57587 78.88589,-34.44305 9.73587,-1.13171 11.8703,-1.70964 11.59492,-3.13952 -0.38943,-2.02216 -9.85684,-4.03749 -39.72573,-8.45642 -43.22709,-6.39521 -90.67512,-8.96955 -134.28702,-7.28588 -22.038,0.85079 -50.09437,3.25322 -59.03394,5.055 -5.21114,1.05031 -4.7666,3.5879 1.07271,6.1235 137.444,59.6822 129.05771,56.24331 130.79482,53.63377 0.88581,-1.33071 5.70007,-6.50003 10.69835,-11.4874 z M 93.853152,325.44893 c 9.744528,-10.57158 31.042138,-22.83693 52.963868,-30.50204 48.91541,-17.10369 116.135,-21.68561 197.58814,-13.46827 19.29245,1.9463 57.43319,7.30102 74.88329,10.51314 8.81569,1.62274 12.0306,1.84308 12.6508,0.86705 0.45734,-0.71971 0.71306,-1.65029 0.56829,-2.06793 -0.69964,-2.01833 -63.49511,-88.69355 -64.60501,-89.1729 -0.70278,-0.30353 -6.02381,0.66299 -11.8245,2.14782 -24.45538,6.25992 -36.98435,7.78174 -64.03851,7.77834 -23.57822,-0.003 -26.22353,-0.21336 -38.08398,-3.02907 -23.45084,-5.56732 -38.57672,-13.5066 -53.44917,-28.05445 l -9.95403,-9.73676 -37.36572,56.47169 c -20.55115,31.05943 -44.05543,66.57729 -52.23173,78.92857 -8.176294,12.35128 -14.612747,22.86664 -14.303224,23.36747 1.086895,1.75863 2.676666,0.86618 7.201486,-4.04266 z"
           id="path2245"
           transform="scale(0.26458333)" />
        <path
           transform="scale(0.26458333)"
           id="path881"
           d="m 434.94562,194.4576 c -0.12616,-0.2957 -0.29405,-2.95706 -0.3731,-5.91411 -0.1104,-4.13012 -0.0267,-6.05028 0.36128,-8.28312 0.96456,-5.55172 3.45799,-11.53476 6.5989,-15.83419 14.42665,-19.74786 48.30008,-27.58071 99.56981,-23.02439 5.1083,0.45397 17.15726,1.82111 19.59443,2.22329 l 1.31444,0.21691 -1.19156,2.45781 c -2.53319,5.22514 -5.11816,8.8878 -9.40651,13.3281 -11.7961,12.21407 -29.7973,21.21174 -55.0123,27.49721 -15.6077,3.8906 -34.47,6.55782 -53.45747,7.55914 -7.75491,0.40896 -7.7264,0.40977 -7.99792,-0.22665 z m 13.98885,-2.40851 c 23.34584,-1.99012 46.09075,-6.48911 64.30692,-12.72006 20.05469,-6.85982 33.90803,-15.88036 41.28832,-26.88469 1.28301,-1.91302 3.58683,-6.28401 3.40693,-6.4639 -0.34589,-0.3459 -14.3296,-1.82364 -23.07582,-2.43858 -35.67222,-2.50805 -62.75699,1.87198 -79.01334,12.77769 -9.88032,6.6283 -15.52774,14.66533 -17.66116,25.13419 -0.61809,3.03302 -0.83416,8.39619 -0.42141,10.45995 l 0.19784,0.9892 2.79762,-0.19774 c 1.5387,-0.10876 5.21704,-0.40399 8.1741,-0.65606 z"
           style="fill:#80afff;fill-opacity:1;stroke:#d0ffff;stroke-width:0.196238;stroke-miterlimit:4;stroke-dasharray:0, 2.15862;stroke-dashoffset:1.96238" />
        <path
           transform="scale(0.26458333)"
           id="path887"
           d="m 483.53307,184.84404 c -0.57515,-0.29688 -2.77992,-1.81446 -3.68279,-2.53492 -0.53175,-0.42432 -1.5018,-1.30737 -2.15567,-1.96234 -3.48667,-3.49249 -5.46912,-7.55835 -6.02883,-12.36464 -0.18692,-1.60521 -0.12513,-4.57967 0.12941,-6.22884 0.57105,-3.69985 1.81958,-7.51283 3.58728,-10.95553 l 0.57078,-1.11162 0.9817,-0.26797 c 8.13615,-2.22094 17.62907,-3.61824 28.44799,-4.18737 3.93892,-0.20721 3.79128,-0.21688 4.85764,0.31805 3.78047,1.89646 6.88571,4.58639 9.06739,7.85468 1.63508,2.44945 2.85187,5.86683 3.20773,9.00895 0.30808,2.72029 0.14247,5.73954 -0.48518,8.84516 -0.26479,1.31019 -0.61415,2.66737 -0.71097,2.76197 -0.1071,0.10465 -3.83463,1.57286 -6.04874,2.3825 -8.3896,3.06786 -18.79113,5.94735 -29.45255,8.15344 -1.88907,0.39089 -2.04793,0.41095 -2.28519,0.28848 z"
           style="fill:#000000;fill-opacity:1;stroke:#d0ffff;stroke-width:0.0587978;stroke-miterlimit:4;stroke-dasharray:none;stroke-dashoffset:6.68976" />
        <path
           transform="scale(0.26458333)"
           id="path889"
           d="m 650.71238,604.67104 c -20.06273,-40.8707 -42.99549,-72.09197 -63.92152,-87.02446 -4.51713,-3.22337 -8.51237,-5.86067 -8.87829,-5.86067 -0.36593,0 -0.39396,2.54399 -0.0622,5.6533 0.51176,4.79756 -0.16737,6.91481 -4.48652,13.98711 -6.55021,10.72552 -24.67794,32.02006 -41.40089,48.63336 l -13.15719,13.07093 -2.99671,-15.06621 c -8.17997,-41.12556 -23.04557,-77.06511 -38.10549,-92.12503 -9.84747,-9.84746 -10.11815,-9.86021 -15.74635,-0.74181 -7.26664,11.77288 -26.35557,37.58577 -37.33499,50.48599 -17.07882,20.0667 -53.76784,53.80987 -56.03858,51.53912 -0.36559,-0.36558 1.75143,-10.45503 4.70448,-22.421 12.10793,-49.06228 13.73274,-91.27803 4.47497,-116.26833 -3.31788,-8.95624 -6.04409,-9.12821 -15.15326,-0.9559 -17.54423,15.73986 -33.86577,27.32089 -49.73403,35.28906 -8.98655,4.51256 -23.20563,9.48044 -24.223,8.46307 -0.27195,-0.27195 1.68462,-4.21249 4.34794,-8.75676 14.57704,-24.87198 27.50665,-56.59541 33.9051,-83.18787 4.9215,-20.45413 13.04245,-42.73452 17.89523,-49.09684 4.35615,-5.71122 16.61611,-14.75123 27.27032,-20.10806 15.40314,-7.74453 47.15022,-16.31294 69.16983,-18.66866 4.75542,-0.50875 9.37349,-1.30927 10.26236,-1.77895 1.79994,-0.95106 -73.52493,-119.33895 -77.25986,-121.42912 -1.47038,-0.82287 -7.28804,0.32918 -18.32241,3.62831 -8.89238,2.6587 -16.94825,5.13343 -17.90194,5.4994 -2.38814,0.91641 -1.0784,-7.07744 2.93276,-17.8998 13.05275,-35.21711 49.78588,-56.76609 112.92588,-66.24642 21.41546,-3.21548 58.92785,-3.26892 76.48587,-0.10896 46.58252,8.38358 88.9988,35.77358 117.75471,76.03925 10.57495,14.80764 21.44679,46.46113 27.41236,79.81134 2.95319,16.50973 3.07754,19.76104 2.74702,71.8302 -0.1904,29.99576 -0.9211,68.00591 -1.62378,84.467 -0.70268,16.46109 -1.87782,48.9267 -2.61143,72.14582 -1.25538,39.73317 -3.52255,69.55624 -6.69352,88.0489 -2.83883,16.55563 -7.00181,35.34306 -7.83144,35.34306 -0.47179,0 -4.43421,-7.28568 -8.80538,-16.19037 z M 479.23918,195.26776 c 46.93562,-8.51837 76.67144,-25.19045 86.38254,-48.43238 1.09307,-2.6161 1.98741,-5.27841 1.98741,-5.91623 0,-1.56409 -22.02909,-4.19259 -43.23114,-5.1583 -35.83815,-1.63237 -64.01121,4.93213 -79.85371,18.60641 -10.20538,8.80866 -16.30913,25.11038 -14.4917,38.70405 l 0.87125,6.5166 16.80782,-0.82433 c 9.24431,-0.45338 23.43169,-2.0265 31.52753,-3.49582 z"
           style="fill:url(#linearGradient899);fill-opacity:1;stroke:#d0ffff;stroke-width:0.889865;stroke-miterlimit:4;stroke-dasharray:0, 9.78851;stroke-dashoffset:0;stroke-opacity:1" />
        <circle
           r="1.9698489"
           cy="44.292595"
           cx="129.07703"
           id="path891"
           style="fill:#ffffff;fill-opacity:1;stroke:#d0ffff;stroke-width:0.177;stroke-miterlimit:4;stroke-dasharray:0, 1.947;stroke-dashoffset:0" />
        <path
           transform="scale(0.26458333)"
           id="path909"
           d="m 439.94346,190.33769 c -0.15277,-0.15277 -0.0807,-4.34722 0.10149,-5.90447 0.47656,-4.07399 1.58399,-7.76509 3.41217,-11.37289 5.21397,-10.28946 15.53415,-17.90233 30.63225,-22.59641 0.78726,-0.24477 1.459,-0.41741 1.49275,-0.38366 0.0338,0.0338 -0.19085,0.56358 -0.49913,1.1774 -1.67107,3.32731 -2.94266,7.43231 -3.41771,11.03323 -0.25132,1.90506 -0.1552,5.76649 0.1841,7.39563 0.58744,2.82057 1.804,5.65024 3.38689,7.87771 0.97547,1.37271 3.19227,3.69741 4.53231,4.75292 0.53113,0.41836 1.54312,1.15625 2.24886,1.63976 0.73284,0.50207 1.21084,0.90211 1.11454,0.93277 -0.30788,0.098 -4.72985,0.90601 -7.98857,1.45969 -10.29679,1.74953 -22.14962,3.17211 -32.37102,3.8852 -3.07874,0.21478 -2.72999,0.20207 -2.82893,0.10312 z"
           style="fill:#ffffff;fill-opacity:1;stroke:#b6ffff;stroke-width:0.756994;stroke-miterlimit:4;stroke-dasharray:0, 8.32693;stroke-dashoffset:0;stroke-opacity:1" />
        <path
           transform="scale(0.26458333)"
           id="path911"
           d="m 521.57824,173.63638 c 0,-0.0281 0.10781,-0.50545 0.23958,-1.06084 2.81799,-11.87699 -1.05861,-21.38869 -10.90868,-26.7658 l -1.15178,-0.62875 7.81996,0.0603 c 4.30098,0.0332 8.88385,0.11828 10.18414,0.18911 8.74463,0.4764 15.64812,1.05925 23.94486,2.02164 1.53368,0.1779 2.80842,0.3404 2.83276,0.36111 0.15368,0.13077 -1.83004,3.29716 -3.25956,5.20288 -3.96222,5.2821 -9.61846,10.07487 -17.03173,14.43168 -2.40704,1.41463 -7.31069,3.90933 -10.22301,5.20088 -2.35464,1.04424 -2.44654,1.08134 -2.44654,0.98777 z"
           style="fill:#ffffff;fill-opacity:1;stroke:#b6ffff;stroke-width:0.755906;stroke-miterlimit:4;stroke-dasharray:0, 8.31496;stroke-dashoffset:0;stroke-opacity:1" />
      </g>
    </g>
  </g>
  <g
     inkscape:label="Terminal"
     inkscape:groupmode="layer"
     id="layer1"
     style="display:inline;opacity:1">
    <rect
       style="opacity:1;fill:#333333;fill-opacity:0.60000002;stroke:#ecd200;stroke-width:0;paint-order:markers stroke fill"
       id="rect18"
       width="165.72029"
       height="134.14095"
       x="21.313951"
       y="38.541065"
       ry="5.3097038" />
    <rect
       style="opacity:1;fill:#ffffff;stroke:#ecd200;stroke-width:0;paint-order:markers stroke fill"
       id="rect20"
       width="166.30655"
       height="16.243128"
       x="21.019266"
       y="38.284939"
       ry="5.2582822" />
    <rect
       style="opacity:1;fill:#ffffff;stroke:#ecd200;stroke-width:0;paint-order:markers stroke fill"
       id="rect845"
       width="166.30656"
       height="4.7947798"
       x="21.019266"
       y="49.733288"
       ry="0" />
    <circle
       style="opacity:1;fill:#ff0000;stroke:#ecd200;stroke-width:0;paint-order:markers stroke fill"
       id="path869"
       cx="179.87831"
       cy="47.246429"
       r="5.3808436" />
    <rect
       style="opacity:1;fill:#ffffff;stroke:#ecd200;stroke-width:0;paint-order:markers stroke fill"
       id="rect871"
       width="106.05872"
       height="5.317874"
       x="25.957769"
       y="59.293163" />
    <rect
       style="opacity:1;fill:#ffffff;stroke:#ecd200;stroke-width:0;paint-order:markers stroke fill"
       id="rect873"
       width="131.68155"
       height="5.317874"
       x="25.957769"
       y="71.897331" />
    <rect
       style="opacity:1;fill:#ffffff;stroke:#ecd200;stroke-width:0;paint-order:markers stroke fill"
       id="rect875"
       width="77.251465"
       height="5.317874"
       x="25.957769"
       y="84.479774" />
    <rect
       style="opacity:1;fill:#ffffff;stroke:#ecd200;stroke-width:0;paint-order:markers stroke fill"
       id="rect877"
       width="92.160339"
       height="5.317874"
       x="25.957769"
       y="97.26725" />
    <rect
       style="opacity:1;fill:#ffffff;stroke:#ecd200;stroke-width:0;paint-order:markers stroke fill"
       id="rect879"
       width="61.67041"
       height="5.317874"
       x="25.957769"
       y="109.98578" />
  </g>
</svg>
